<svg width="20" height="20" viewBox="0 0 20 20" fill="none" xmlns="http://www.w3.org/2000/svg">
<g id="Frame" clip-path="url(#clip0_116_6050)">
<path id="Vector" d="M17.4997 11.6667L14.9997 9.16667H9.16634C8.94533 9.16667 8.73337 9.07887 8.57709 8.92259C8.42081 8.76631 8.33301 8.55435 8.33301 8.33333V3.33333C8.33301 3.11232 8.42081 2.90036 8.57709 2.74408C8.73337 2.5878 8.94533 2.5 9.16634 2.5H16.6663C16.8874 2.5 17.0993 2.5878 17.2556 2.74408C17.4119 2.90036 17.4997 3.11232 17.4997 3.33333V11.6667Z" stroke="white" stroke-linecap="round" stroke-linejoin="round"/>
<path id="Vector_2" d="M11.6667 12.4997V14.1663C11.6667 14.3874 11.5789 14.5993 11.4226 14.7556C11.2663 14.9119 11.0543 14.9997 10.8333 14.9997H5L2.5 17.4997V9.16634C2.5 8.94533 2.5878 8.73337 2.74408 8.57709C2.90036 8.42081 3.11232 8.33301 3.33333 8.33301H5" stroke="white" stroke-linecap="round" stroke-linejoin="round"/>
</g>
<defs>
<clipPath id="clip0_116_6050">
<rect width="20" height="20" fill="white"/>
</clipPath>
</defs>
</svg>
