<svg width="35" height="48" viewBox="0 0 35 48" fill="none" xmlns="http://www.w3.org/2000/svg">
<path d="M24.5003 8.70977L19.1673 4.56177C18.6993 4.19768 18.1232 4 17.5303 4C16.9373 4 16.3613 4.19768 15.8933 4.56177L10.5593 8.70977C10.2387 8.95905 9.97937 9.2783 9.80103 9.64312C9.62269 10.0079 9.53008 10.4087 9.53027 10.8148V18.0148C9.53027 18.5452 9.74099 19.0539 10.1161 19.429C10.4911 19.8041 10.9998 20.0148 11.5303 20.0148H23.5303C24.0607 20.0148 24.5694 19.8041 24.9445 19.429C25.3196 19.0539 25.5303 18.5452 25.5303 18.0148V10.8148C25.5303 9.99177 25.1503 9.21477 24.5003 8.70977Z" fill="white" stroke="white" stroke-width="1.5" stroke-linecap="round" stroke-linejoin="round"/>
<path d="M21.5 15C19.29 16.333 15.708 16.333 13.5 15" stroke="#0F172A" stroke-width="1.5" stroke-linecap="round" stroke-linejoin="round"/>
<path d="M1.04781 43V34.36H2.49381V37.996H6.58581V34.36H8.02581V43H6.58581V39.352H2.49381V43H1.04781ZM12.77 43.18C12.122 43.18 11.556 43.034 11.072 42.742C10.588 42.45 10.212 42.048 9.94397 41.536C9.67997 41.02 9.54797 40.428 9.54797 39.76C9.54797 39.08 9.68397 38.484 9.95597 37.972C10.228 37.46 10.606 37.06 11.09 36.772C11.574 36.484 12.134 36.34 12.77 36.34C13.422 36.34 13.99 36.486 14.474 36.778C14.958 37.07 15.334 37.474 15.602 37.99C15.87 38.502 16.004 39.092 16.004 39.76C16.004 40.432 15.868 41.026 15.596 41.542C15.328 42.054 14.952 42.456 14.468 42.748C13.984 43.036 13.418 43.18 12.77 43.18ZM12.77 41.824C13.346 41.824 13.774 41.632 14.054 41.248C14.334 40.864 14.474 40.368 14.474 39.76C14.474 39.132 14.332 38.632 14.048 38.26C13.764 37.884 13.338 37.696 12.77 37.696C12.382 37.696 12.062 37.784 11.81 37.96C11.562 38.132 11.378 38.374 11.258 38.686C11.138 38.994 11.078 39.352 11.078 39.76C11.078 40.388 11.22 40.89 11.504 41.266C11.792 41.638 12.214 41.824 12.77 41.824ZM25.3079 43V39.064C25.3079 38.62 25.1979 38.274 24.9779 38.026C24.7579 37.774 24.4599 37.648 24.0839 37.648C23.8519 37.648 23.6439 37.702 23.4599 37.81C23.2759 37.914 23.1299 38.07 23.0219 38.278C22.9139 38.482 22.8599 38.726 22.8599 39.01L22.2179 38.632C22.2139 38.184 22.3139 37.79 22.5179 37.45C22.7259 37.106 23.0059 36.838 23.3579 36.646C23.7099 36.454 24.1019 36.358 24.5339 36.358C25.2499 36.358 25.7979 36.574 26.1779 37.006C26.5619 37.434 26.7539 37.998 26.7539 38.698V43H25.3079ZM17.5139 43V36.52H18.7919V38.53H18.9719V43H17.5139ZM21.4199 43V39.082C21.4199 38.63 21.3099 38.278 21.0899 38.026C20.8699 37.774 20.5699 37.648 20.1899 37.648C19.8219 37.648 19.5259 37.774 19.3019 38.026C19.0819 38.278 18.9719 38.606 18.9719 39.01L18.3239 38.578C18.3239 38.158 18.4279 37.78 18.6359 37.444C18.8439 37.108 19.1239 36.844 19.4759 36.652C19.8319 36.456 20.2299 36.358 20.6699 36.358C21.1539 36.358 21.5579 36.462 21.8819 36.67C22.2099 36.874 22.4539 37.154 22.6139 37.51C22.7779 37.862 22.8599 38.26 22.8599 38.704V43H21.4199ZM31.3594 43.18C30.7034 43.18 30.1274 43.038 29.6314 42.754C29.1354 42.47 28.7474 42.076 28.4674 41.572C28.1914 41.068 28.0534 40.488 28.0534 39.832C28.0534 39.124 28.1894 38.51 28.4614 37.99C28.7334 37.466 29.1114 37.06 29.5954 36.772C30.0794 36.484 30.6394 36.34 31.2754 36.34C31.9474 36.34 32.5174 36.498 32.9854 36.814C33.4574 37.126 33.8074 37.568 34.0354 38.14C34.2634 38.712 34.3494 39.386 34.2934 40.162H32.8594V39.634C32.8554 38.93 32.7314 38.416 32.4874 38.092C32.2434 37.768 31.8594 37.606 31.3354 37.606C30.7434 37.606 30.3034 37.79 30.0154 38.158C29.7274 38.522 29.5834 39.056 29.5834 39.76C29.5834 40.416 29.7274 40.924 30.0154 41.284C30.3034 41.644 30.7234 41.824 31.2754 41.824C31.6314 41.824 31.9374 41.746 32.1934 41.59C32.4534 41.43 32.6534 41.2 32.7934 40.9L34.2214 41.332C33.9734 41.916 33.5894 42.37 33.0694 42.694C32.5534 43.018 31.9834 43.18 31.3594 43.18ZM29.1274 40.162V39.07H33.5854V40.162H29.1274Z" fill="white"/>
</svg>
