<svg width="43" height="20" viewBox="0 0 43 20" fill="none" xmlns="http://www.w3.org/2000/svg">
<rect width="43" height="20" rx="10" fill="#E41447"/>
<path d="M9.52539 12.1C9.28872 12.1 9.07372 12.045 8.88039 11.935C8.69039 11.825 8.53706 11.6767 8.42039 11.49C8.30706 11.3 8.25039 11.0867 8.25039 10.85C8.25039 10.6133 8.30706 10.4 8.42039 10.21C8.53706 10.02 8.69039 9.87167 8.88039 9.765C9.07372 9.655 9.28872 9.6 9.52539 9.6C9.74539 9.6 9.94872 9.655 10.1354 9.765C10.3221 9.87167 10.4704 10.02 10.5804 10.21C10.6937 10.4 10.7504 10.6133 10.7504 10.85C10.7504 11.0867 10.6937 11.3 10.5804 11.49C10.4704 11.6767 10.3221 11.825 10.1354 11.935C9.94872 12.045 9.74539 12.1 9.52539 12.1Z" fill="white"/>
<path d="M14.212 15V6.36H15.28V13.986H19.288V15H14.212ZM20.4229 15V6.36H21.4909V15H20.4229ZM25.4032 15L22.5112 6.36H23.6212L26.1352 13.866L28.6732 6.36H29.7832L26.8912 15H25.4032ZM30.6857 15V6.36H36.1457V7.374H31.7537V10.08H35.4257V11.094H31.7537V13.986H36.1457V15H30.6857Z" fill="white"/>
</svg>
