<svg width="65" height="48" viewBox="0 0 65 48" fill="none" xmlns="http://www.w3.org/2000/svg">
<path d="M23.25 12H28.25L32.25 20V4L36.25 12H41.25" stroke="#64748B" stroke-width="1.5" stroke-linecap="round" stroke-linejoin="round"/>
<path d="M1.40141 43V34.36H2.28341V42.154H6.38741V43H1.40141ZM7.73031 35.29V34.3H8.61231V35.29H7.73031ZM7.73031 43V36.52H8.61231V43H7.73031ZM12.3631 43L10.0111 36.52H10.9051L12.8191 41.848L14.7211 36.52H15.6271L13.2751 43H12.3631ZM19.4125 43.18C18.7805 43.18 18.2325 43.04 17.7685 42.76C17.3085 42.48 16.9505 42.086 16.6945 41.578C16.4385 41.07 16.3105 40.474 16.3105 39.79C16.3105 39.082 16.4365 38.47 16.6885 37.954C16.9405 37.438 17.2945 37.04 17.7505 36.76C18.2105 36.48 18.7525 36.34 19.3765 36.34C20.0165 36.34 20.5625 36.488 21.0145 36.784C21.4665 37.076 21.8085 37.496 22.0405 38.044C22.2725 38.592 22.3785 39.246 22.3585 40.006H21.4585V39.694C21.4425 38.854 21.2605 38.22 20.9125 37.792C20.5685 37.364 20.0645 37.15 19.4005 37.15C18.7045 37.15 18.1705 37.376 17.7985 37.828C17.4305 38.28 17.2465 38.924 17.2465 39.76C17.2465 40.576 17.4305 41.21 17.7985 41.662C18.1705 42.11 18.6965 42.334 19.3765 42.334C19.8405 42.334 20.2445 42.228 20.5885 42.016C20.9365 41.8 21.2105 41.49 21.4105 41.086L22.2325 41.404C21.9765 41.968 21.5985 42.406 21.0985 42.718C20.6025 43.026 20.0405 43.18 19.4125 43.18ZM16.9345 40.006V39.268H21.8845V40.006H16.9345ZM28.9103 43.174C28.1503 43.174 27.5243 43.01 27.0323 42.682C26.5443 42.354 26.2443 41.898 26.1323 41.314L27.0323 41.164C27.1283 41.532 27.3463 41.826 27.6863 42.046C28.0303 42.262 28.4543 42.37 28.9583 42.37C29.4503 42.37 29.8383 42.268 30.1223 42.064C30.4063 41.856 30.5483 41.574 30.5483 41.218C30.5483 41.018 30.5023 40.856 30.4103 40.732C30.3223 40.604 30.1403 40.486 29.8643 40.378C29.5883 40.27 29.1763 40.142 28.6283 39.994C28.0403 39.834 27.5803 39.674 27.2483 39.514C26.9163 39.354 26.6803 39.17 26.5403 38.962C26.4003 38.75 26.3303 38.492 26.3303 38.188C26.3303 37.82 26.4343 37.498 26.6423 37.222C26.8503 36.942 27.1383 36.726 27.5063 36.574C27.8743 36.418 28.3023 36.34 28.7903 36.34C29.2783 36.34 29.7143 36.42 30.0983 36.58C30.4863 36.736 30.7983 36.956 31.0343 37.24C31.2703 37.524 31.4103 37.854 31.4543 38.23L30.5543 38.392C30.4943 38.012 30.3043 37.712 29.9843 37.492C29.6683 37.268 29.2663 37.152 28.7783 37.144C28.3183 37.132 27.9443 37.22 27.6563 37.408C27.3683 37.592 27.2243 37.838 27.2243 38.146C27.2243 38.318 27.2763 38.466 27.3803 38.59C27.4843 38.71 27.6723 38.824 27.9443 38.932C28.2203 39.04 28.6123 39.158 29.1203 39.286C29.7163 39.438 30.1843 39.598 30.5243 39.766C30.8643 39.934 31.1063 40.132 31.2503 40.36C31.3943 40.588 31.4663 40.87 31.4663 41.206C31.4663 41.818 31.2383 42.3 30.7823 42.652C30.3303 43 29.7063 43.174 28.9103 43.174ZM35.685 43.18C35.033 43.18 34.481 43.034 34.029 42.742C33.577 42.45 33.233 42.048 32.997 41.536C32.765 41.02 32.645 40.428 32.637 39.76C32.645 39.08 32.769 38.484 33.009 37.972C33.249 37.456 33.595 37.056 34.047 36.772C34.499 36.484 35.047 36.34 35.691 36.34C36.347 36.34 36.917 36.5 37.401 36.82C37.889 37.14 38.223 37.578 38.403 38.134L37.539 38.41C37.387 38.022 37.145 37.722 36.813 37.51C36.485 37.294 36.109 37.186 35.685 37.186C35.209 37.186 34.815 37.296 34.503 37.516C34.191 37.732 33.959 38.034 33.807 38.422C33.655 38.81 33.577 39.256 33.573 39.76C33.581 40.536 33.761 41.16 34.113 41.632C34.465 42.1 34.989 42.334 35.685 42.334C36.125 42.334 36.499 42.234 36.807 42.034C37.119 41.83 37.355 41.534 37.515 41.146L38.403 41.41C38.163 41.986 37.811 42.426 37.347 42.73C36.883 43.03 36.329 43.18 35.685 43.18ZM42.3718 43.18C41.7278 43.18 41.1778 43.034 40.7218 42.742C40.2658 42.45 39.9158 42.046 39.6718 41.53C39.4278 41.014 39.3058 40.422 39.3058 39.754C39.3058 39.074 39.4298 38.478 39.6778 37.966C39.9258 37.454 40.2778 37.056 40.7338 36.772C41.1938 36.484 41.7398 36.34 42.3718 36.34C43.0198 36.34 43.5718 36.486 44.0278 36.778C44.4878 37.066 44.8378 37.468 45.0778 37.984C45.3218 38.496 45.4438 39.086 45.4438 39.754C45.4438 40.434 45.3218 41.032 45.0778 41.548C44.8338 42.06 44.4818 42.46 44.0218 42.748C43.5618 43.036 43.0118 43.18 42.3718 43.18ZM42.3718 42.334C43.0918 42.334 43.6278 42.096 43.9798 41.62C44.3318 41.14 44.5078 40.518 44.5078 39.754C44.5078 38.97 44.3298 38.346 43.9738 37.882C43.6218 37.418 43.0878 37.186 42.3718 37.186C41.8878 37.186 41.4878 37.296 41.1718 37.516C40.8598 37.732 40.6258 38.034 40.4698 38.422C40.3178 38.806 40.2418 39.25 40.2418 39.754C40.2418 40.534 40.4218 41.16 40.7818 41.632C41.1418 42.1 41.6718 42.334 42.3718 42.334ZM46.9673 43V36.52H47.7593V38.08L47.6033 37.876C47.6753 37.684 47.7693 37.508 47.8853 37.348C48.0013 37.184 48.1273 37.05 48.2633 36.946C48.4313 36.798 48.6273 36.686 48.8513 36.61C49.0753 36.53 49.3013 36.484 49.5293 36.472C49.7573 36.456 49.9653 36.472 50.1533 36.52V37.348C49.9173 37.288 49.6593 37.274 49.3793 37.306C49.0993 37.338 48.8413 37.45 48.6053 37.642C48.3893 37.81 48.2273 38.012 48.1193 38.248C48.0113 38.48 47.9393 38.728 47.9033 38.992C47.8673 39.252 47.8493 39.51 47.8493 39.766V43H46.9673ZM54.1164 43.18C53.4844 43.18 52.9364 43.04 52.4724 42.76C52.0124 42.48 51.6544 42.086 51.3984 41.578C51.1424 41.07 51.0144 40.474 51.0144 39.79C51.0144 39.082 51.1404 38.47 51.3924 37.954C51.6444 37.438 51.9984 37.04 52.4544 36.76C52.9144 36.48 53.4564 36.34 54.0804 36.34C54.7204 36.34 55.2664 36.488 55.7184 36.784C56.1704 37.076 56.5124 37.496 56.7444 38.044C56.9764 38.592 57.0824 39.246 57.0624 40.006H56.1624V39.694C56.1464 38.854 55.9644 38.22 55.6164 37.792C55.2724 37.364 54.7684 37.15 54.1044 37.15C53.4084 37.15 52.8744 37.376 52.5024 37.828C52.1344 38.28 51.9504 38.924 51.9504 39.76C51.9504 40.576 52.1344 41.21 52.5024 41.662C52.8744 42.11 53.4004 42.334 54.0804 42.334C54.5444 42.334 54.9484 42.228 55.2924 42.016C55.6404 41.8 55.9144 41.49 56.1144 41.086L56.9364 41.404C56.6804 41.968 56.3024 42.406 55.8024 42.718C55.3064 43.026 54.7444 43.18 54.1164 43.18ZM51.6384 40.006V39.268H56.5884V40.006H51.6384ZM61.0119 43.174C60.2519 43.174 59.6259 43.01 59.1339 42.682C58.6459 42.354 58.3459 41.898 58.2339 41.314L59.1339 41.164C59.2299 41.532 59.4479 41.826 59.7879 42.046C60.1319 42.262 60.5559 42.37 61.0599 42.37C61.5519 42.37 61.9399 42.268 62.2239 42.064C62.5079 41.856 62.6499 41.574 62.6499 41.218C62.6499 41.018 62.6039 40.856 62.5119 40.732C62.4239 40.604 62.2419 40.486 61.9659 40.378C61.6899 40.27 61.2779 40.142 60.7299 39.994C60.1419 39.834 59.6819 39.674 59.3499 39.514C59.0179 39.354 58.7819 39.17 58.6419 38.962C58.5019 38.75 58.4319 38.492 58.4319 38.188C58.4319 37.82 58.5359 37.498 58.7439 37.222C58.9519 36.942 59.2399 36.726 59.6079 36.574C59.9759 36.418 60.4039 36.34 60.8919 36.34C61.3799 36.34 61.8159 36.42 62.1999 36.58C62.5879 36.736 62.8999 36.956 63.1359 37.24C63.3719 37.524 63.5119 37.854 63.5559 38.23L62.6559 38.392C62.5959 38.012 62.4059 37.712 62.0859 37.492C61.7699 37.268 61.3679 37.152 60.8799 37.144C60.4199 37.132 60.0459 37.22 59.7579 37.408C59.4699 37.592 59.3259 37.838 59.3259 38.146C59.3259 38.318 59.3779 38.466 59.4819 38.59C59.5859 38.71 59.7739 38.824 60.0459 38.932C60.3219 39.04 60.7139 39.158 61.2219 39.286C61.8179 39.438 62.2859 39.598 62.6259 39.766C62.9659 39.934 63.2079 40.132 63.3519 40.36C63.4959 40.588 63.5679 40.87 63.5679 41.206C63.5679 41.818 63.3399 42.3 62.8839 42.652C62.4319 43 61.8079 43.174 61.0119 43.174Z" fill="#64748B"/>
</svg>
