<svg width="75" height="48" viewBox="0 0 75 48" fill="none" xmlns="http://www.w3.org/2000/svg">
<g clip-path="url(#clip0_116_5344)">
<path d="M35.75 5C35.75 4.46957 35.9607 3.96086 36.3358 3.58579C36.7109 3.21071 37.2196 3 37.75 3C38.2804 3 38.7891 3.21071 39.1642 3.58579C39.5393 3.96086 39.75 4.46957 39.75 5C40.8984 5.54303 41.8774 6.38833 42.5821 7.4453C43.2867 8.50227 43.6904 9.73107 43.75 11V14C43.8253 14.6217 44.0454 15.2171 44.3928 15.7381C44.7402 16.2592 45.2051 16.6914 45.75 17H29.75C30.2949 16.6914 30.7598 16.2592 31.1072 15.7381C31.4546 15.2171 31.6747 14.6217 31.75 14V11C31.8096 9.73107 32.2133 8.50227 32.9179 7.4453C33.6226 6.38833 34.6016 5.54303 35.75 5Z" stroke="#64748B" stroke-width="1.5" stroke-linecap="round" stroke-linejoin="round"/>
<path d="M34.75 17V18C34.75 18.7956 35.0661 19.5587 35.6287 20.1213C36.1913 20.6839 36.9544 21 37.75 21C38.5456 21 39.3087 20.6839 39.8713 20.1213C40.4339 19.5587 40.75 18.7956 40.75 18V17" stroke="#64748B" stroke-width="1.5" stroke-linecap="round" stroke-linejoin="round"/>
</g>
<path d="M1.7068 43V34.36H2.5948L7.3528 41.44V34.36H8.2408V43H7.3528L2.5948 35.914V43H1.7068ZM12.8276 43.18C12.1836 43.18 11.6336 43.034 11.1776 42.742C10.7216 42.45 10.3716 42.046 10.1276 41.53C9.88364 41.014 9.76164 40.422 9.76164 39.754C9.76164 39.074 9.88564 38.478 10.1336 37.966C10.3816 37.454 10.7336 37.056 11.1896 36.772C11.6496 36.484 12.1956 36.34 12.8276 36.34C13.4756 36.34 14.0276 36.486 14.4836 36.778C14.9436 37.066 15.2936 37.468 15.5336 37.984C15.7776 38.496 15.8996 39.086 15.8996 39.754C15.8996 40.434 15.7776 41.032 15.5336 41.548C15.2896 42.06 14.9376 42.46 14.4776 42.748C14.0176 43.036 13.4676 43.18 12.8276 43.18ZM12.8276 42.334C13.5476 42.334 14.0836 42.096 14.4356 41.62C14.7876 41.14 14.9636 40.518 14.9636 39.754C14.9636 38.97 14.7856 38.346 14.4296 37.882C14.0776 37.418 13.5436 37.186 12.8276 37.186C12.3436 37.186 11.9436 37.296 11.6276 37.516C11.3156 37.732 11.0816 38.034 10.9256 38.422C10.7736 38.806 10.6976 39.25 10.6976 39.754C10.6976 40.534 10.8776 41.16 11.2376 41.632C11.5976 42.1 12.1276 42.334 12.8276 42.334ZM20.9512 43C20.5872 43.076 20.2272 43.106 19.8712 43.09C19.5192 43.074 19.2032 42.998 18.9232 42.862C18.6472 42.726 18.4372 42.514 18.2932 42.226C18.1772 41.986 18.1132 41.744 18.1012 41.5C18.0932 41.252 18.0892 40.97 18.0892 40.654V34.72H18.9652V40.618C18.9652 40.89 18.9672 41.118 18.9712 41.302C18.9792 41.482 19.0212 41.642 19.0972 41.782C19.2412 42.05 19.4692 42.21 19.7812 42.262C20.0972 42.314 20.4872 42.302 20.9512 42.226V43ZM16.7032 37.276V36.52H20.9512V37.276H16.7032ZM22.5479 35.29V34.3H23.4299V35.29H22.5479ZM22.5479 43V36.52H23.4299V43H22.5479ZM26.0707 43V36.04C26.0707 35.872 26.0787 35.706 26.0947 35.542C26.1147 35.378 26.1527 35.222 26.2087 35.074C26.2647 34.922 26.3527 34.782 26.4727 34.654C26.6047 34.51 26.7487 34.406 26.9047 34.342C27.0607 34.274 27.2227 34.23 27.3907 34.21C27.5627 34.19 27.7307 34.18 27.8947 34.18H28.7227V34.924H27.9547C27.6187 34.924 27.3667 35.006 27.1987 35.17C27.0347 35.334 26.9527 35.592 26.9527 35.944V43H26.0707ZM24.9487 37.276V36.52H28.7227V37.276H24.9487ZM29.9827 35.29V34.3H30.8647V35.29H29.9827ZM29.9827 43V36.52H30.8647V43H29.9827ZM35.5471 43.18C34.8951 43.18 34.3431 43.034 33.8911 42.742C33.4391 42.45 33.0951 42.048 32.8591 41.536C32.6271 41.02 32.5071 40.428 32.4991 39.76C32.5071 39.08 32.6311 38.484 32.8711 37.972C33.1111 37.456 33.4571 37.056 33.9091 36.772C34.3611 36.484 34.9091 36.34 35.5531 36.34C36.2091 36.34 36.7791 36.5 37.2631 36.82C37.7511 37.14 38.0851 37.578 38.2651 38.134L37.4011 38.41C37.2491 38.022 37.0071 37.722 36.6751 37.51C36.3471 37.294 35.9711 37.186 35.5471 37.186C35.0711 37.186 34.6771 37.296 34.3651 37.516C34.0531 37.732 33.8211 38.034 33.6691 38.422C33.5171 38.81 33.4391 39.256 33.4351 39.76C33.4431 40.536 33.6231 41.16 33.9751 41.632C34.3271 42.1 34.8511 42.334 35.5471 42.334C35.9871 42.334 36.3611 42.234 36.6691 42.034C36.9811 41.83 37.2171 41.534 37.3771 41.146L38.2651 41.41C38.0251 41.986 37.6731 42.426 37.2091 42.73C36.7451 43.03 36.1911 43.18 35.5471 43.18ZM41.5225 43.18C41.0345 43.18 40.6245 43.092 40.2925 42.916C39.9645 42.74 39.7185 42.506 39.5545 42.214C39.3905 41.922 39.3085 41.604 39.3085 41.26C39.3085 40.908 39.3785 40.608 39.5185 40.36C39.6625 40.108 39.8565 39.902 40.1005 39.742C40.3485 39.582 40.6345 39.46 40.9585 39.376C41.2865 39.296 41.6485 39.226 42.0445 39.166C42.4445 39.102 42.8345 39.048 43.2145 39.004C43.5985 38.956 43.9345 38.91 44.2225 38.866L43.9105 39.058C43.9225 38.418 43.7985 37.944 43.5385 37.636C43.2785 37.328 42.8265 37.174 42.1825 37.174C41.7385 37.174 41.3625 37.274 41.0545 37.474C40.7505 37.674 40.5365 37.99 40.4125 38.422L39.5545 38.17C39.7025 37.59 40.0005 37.14 40.4485 36.82C40.8965 36.5 41.4785 36.34 42.1945 36.34C42.7865 36.34 43.2885 36.452 43.7005 36.676C44.1165 36.896 44.4105 37.216 44.5825 37.636C44.6625 37.824 44.7145 38.034 44.7385 38.266C44.7625 38.498 44.7745 38.734 44.7745 38.974V43H43.9885V41.374L44.2165 41.47C43.9965 42.026 43.6545 42.45 43.1905 42.742C42.7265 43.034 42.1705 43.18 41.5225 43.18ZM41.6245 42.418C42.0365 42.418 42.3965 42.344 42.7045 42.196C43.0125 42.048 43.2605 41.846 43.4485 41.59C43.6365 41.33 43.7585 41.038 43.8145 40.714C43.8625 40.506 43.8885 40.278 43.8925 40.03C43.8965 39.778 43.8985 39.59 43.8985 39.466L44.2345 39.64C43.9345 39.68 43.6085 39.72 43.2565 39.76C42.9085 39.8 42.5645 39.846 42.2245 39.898C41.8885 39.95 41.5845 40.012 41.3125 40.084C41.1285 40.136 40.9505 40.21 40.7785 40.306C40.6065 40.398 40.4645 40.522 40.3525 40.678C40.2445 40.834 40.1905 41.028 40.1905 41.26C40.1905 41.448 40.2365 41.63 40.3285 41.806C40.4245 41.982 40.5765 42.128 40.7845 42.244C40.9965 42.36 41.2765 42.418 41.6245 42.418ZM50.0645 43C49.7005 43.076 49.3405 43.106 48.9845 43.09C48.6325 43.074 48.3165 42.998 48.0365 42.862C47.7605 42.726 47.5505 42.514 47.4065 42.226C47.2905 41.986 47.2265 41.744 47.2145 41.5C47.2065 41.252 47.2025 40.97 47.2025 40.654V34.72H48.0785V40.618C48.0785 40.89 48.0805 41.118 48.0845 41.302C48.0925 41.482 48.1345 41.642 48.2105 41.782C48.3545 42.05 48.5825 42.21 48.8945 42.262C49.2105 42.314 49.6005 42.302 50.0645 42.226V43ZM45.8165 37.276V36.52H50.0645V37.276H45.8165ZM51.6612 35.29V34.3H52.5432V35.29H51.6612ZM51.6612 43V36.52H52.5432V43H51.6612ZM57.248 43.18C56.604 43.18 56.054 43.034 55.598 42.742C55.142 42.45 54.792 42.046 54.548 41.53C54.304 41.014 54.182 40.422 54.182 39.754C54.182 39.074 54.306 38.478 54.554 37.966C54.802 37.454 55.154 37.056 55.61 36.772C56.07 36.484 56.616 36.34 57.248 36.34C57.896 36.34 58.448 36.486 58.904 36.778C59.364 37.066 59.714 37.468 59.954 37.984C60.198 38.496 60.32 39.086 60.32 39.754C60.32 40.434 60.198 41.032 59.954 41.548C59.71 42.06 59.358 42.46 58.898 42.748C58.438 43.036 57.888 43.18 57.248 43.18ZM57.248 42.334C57.968 42.334 58.504 42.096 58.856 41.62C59.208 41.14 59.384 40.518 59.384 39.754C59.384 38.97 59.206 38.346 58.85 37.882C58.498 37.418 57.964 37.186 57.248 37.186C56.764 37.186 56.364 37.296 56.048 37.516C55.736 37.732 55.502 38.034 55.346 38.422C55.194 38.806 55.118 39.25 55.118 39.754C55.118 40.534 55.298 41.16 55.658 41.632C56.018 42.1 56.548 42.334 57.248 42.334ZM66.5235 43V39.694C66.5235 39.334 66.4895 39.004 66.4215 38.704C66.3535 38.4 66.2435 38.136 66.0915 37.912C65.9435 37.684 65.7495 37.508 65.5095 37.384C65.2735 37.26 64.9855 37.198 64.6455 37.198C64.3335 37.198 64.0575 37.252 63.8175 37.36C63.5815 37.468 63.3815 37.624 63.2175 37.828C63.0575 38.028 62.9355 38.272 62.8515 38.56C62.7675 38.848 62.7255 39.176 62.7255 39.544L62.1015 39.406C62.1015 38.742 62.2175 38.184 62.4495 37.732C62.6815 37.28 63.0015 36.938 63.4095 36.706C63.8175 36.474 64.2855 36.358 64.8135 36.358C65.2015 36.358 65.5395 36.418 65.8275 36.538C66.1195 36.658 66.3655 36.82 66.5655 37.024C66.7695 37.228 66.9335 37.462 67.0575 37.726C67.1815 37.986 67.2715 38.264 67.3275 38.56C67.3835 38.852 67.4115 39.144 67.4115 39.436V43H66.5235ZM61.8375 43V36.52H62.6355V38.116H62.7255V43H61.8375ZM71.5865 43.174C70.8265 43.174 70.2005 43.01 69.7085 42.682C69.2205 42.354 68.9205 41.898 68.8085 41.314L69.7085 41.164C69.8045 41.532 70.0225 41.826 70.3625 42.046C70.7065 42.262 71.1305 42.37 71.6345 42.37C72.1265 42.37 72.5145 42.268 72.7985 42.064C73.0825 41.856 73.2245 41.574 73.2245 41.218C73.2245 41.018 73.1785 40.856 73.0865 40.732C72.9985 40.604 72.8165 40.486 72.5405 40.378C72.2645 40.27 71.8525 40.142 71.3045 39.994C70.7165 39.834 70.2565 39.674 69.9245 39.514C69.5925 39.354 69.3565 39.17 69.2165 38.962C69.0765 38.75 69.0065 38.492 69.0065 38.188C69.0065 37.82 69.1105 37.498 69.3185 37.222C69.5265 36.942 69.8145 36.726 70.1825 36.574C70.5505 36.418 70.9785 36.34 71.4665 36.34C71.9545 36.34 72.3905 36.42 72.7745 36.58C73.1625 36.736 73.4745 36.956 73.7105 37.24C73.9465 37.524 74.0865 37.854 74.1305 38.23L73.2305 38.392C73.1705 38.012 72.9805 37.712 72.6605 37.492C72.3445 37.268 71.9425 37.152 71.4545 37.144C70.9945 37.132 70.6205 37.22 70.3325 37.408C70.0445 37.592 69.9005 37.838 69.9005 38.146C69.9005 38.318 69.9525 38.466 70.0565 38.59C70.1605 38.71 70.3485 38.824 70.6205 38.932C70.8965 39.04 71.2885 39.158 71.7965 39.286C72.3925 39.438 72.8605 39.598 73.2005 39.766C73.5405 39.934 73.7825 40.132 73.9265 40.36C74.0705 40.588 74.1425 40.87 74.1425 41.206C74.1425 41.818 73.9145 42.3 73.4585 42.652C73.0065 43 72.3825 43.174 71.5865 43.174Z" fill="#64748B"/>
<defs>
<clipPath id="clip0_116_5344">
<rect width="24" height="24" fill="white" transform="translate(25.75)"/>
</clipPath>
</defs>
</svg>
