<svg width="37" height="48" viewBox="0 0 37 48" fill="none" xmlns="http://www.w3.org/2000/svg">
<path d="M18.5 11C20.7091 11 22.5 9.20914 22.5 7C22.5 4.79086 20.7091 3 18.5 3C16.2909 3 14.5 4.79086 14.5 7C14.5 9.20914 16.2909 11 18.5 11Z" stroke="#64748B" stroke-width="1.5" stroke-linecap="round" stroke-linejoin="round"/>
<path d="M12.5 21V19C12.5 17.9391 12.9214 16.9217 13.6716 16.1716C14.4217 15.4214 15.4391 15 16.5 15H20.5C21.5609 15 22.5783 15.4214 23.3284 16.1716C24.0786 16.9217 24.5 17.9391 24.5 19V21" stroke="#64748B" stroke-width="1.5" stroke-linecap="round" stroke-linejoin="round"/>
<path d="M1.03922 43V34.36H4.37522C4.45922 34.36 4.55322 34.364 4.65722 34.372C4.76522 34.376 4.87322 34.388 4.98122 34.408C5.43322 34.476 5.81522 34.634 6.12722 34.882C6.44322 35.126 6.68122 35.434 6.84122 35.806C7.00522 36.178 7.08722 36.59 7.08722 37.042C7.08722 37.49 7.00522 37.9 6.84122 38.272C6.67722 38.644 6.43722 38.954 6.12122 39.202C5.80922 39.446 5.42922 39.602 4.98122 39.67C4.87322 39.686 4.76522 39.698 4.65722 39.706C4.55322 39.714 4.45922 39.718 4.37522 39.718H1.92122V43H1.03922ZM1.92122 38.878H4.35122C4.42322 38.878 4.50722 38.874 4.60322 38.866C4.69922 38.858 4.79322 38.844 4.88522 38.824C5.18122 38.76 5.42322 38.638 5.61122 38.458C5.80322 38.278 5.94522 38.064 6.03722 37.816C6.13322 37.568 6.18122 37.31 6.18122 37.042C6.18122 36.774 6.13322 36.516 6.03722 36.268C5.94522 36.016 5.80322 35.8 5.61122 35.62C5.42322 35.44 5.18122 35.318 4.88522 35.254C4.79322 35.234 4.69922 35.222 4.60322 35.218C4.50722 35.21 4.42322 35.206 4.35122 35.206H1.92122V38.878ZM8.48141 43V36.52H9.27341V38.08L9.11741 37.876C9.18941 37.684 9.28341 37.508 9.39941 37.348C9.51541 37.184 9.64141 37.05 9.77741 36.946C9.94541 36.798 10.1414 36.686 10.3654 36.61C10.5894 36.53 10.8154 36.484 11.0434 36.472C11.2714 36.456 11.4794 36.472 11.6674 36.52V37.348C11.4314 37.288 11.1734 37.274 10.8934 37.306C10.6134 37.338 10.3554 37.45 10.1194 37.642C9.90341 37.81 9.74141 38.012 9.63341 38.248C9.52541 38.48 9.45341 38.728 9.41741 38.992C9.38141 39.252 9.36341 39.51 9.36341 39.766V43H8.48141ZM15.5944 43.18C14.9504 43.18 14.4004 43.034 13.9444 42.742C13.4884 42.45 13.1384 42.046 12.8944 41.53C12.6504 41.014 12.5284 40.422 12.5284 39.754C12.5284 39.074 12.6524 38.478 12.9004 37.966C13.1484 37.454 13.5004 37.056 13.9564 36.772C14.4164 36.484 14.9624 36.34 15.5944 36.34C16.2424 36.34 16.7944 36.486 17.2504 36.778C17.7104 37.066 18.0604 37.468 18.3004 37.984C18.5444 38.496 18.6664 39.086 18.6664 39.754C18.6664 40.434 18.5444 41.032 18.3004 41.548C18.0564 42.06 17.7044 42.46 17.2444 42.748C16.7844 43.036 16.2344 43.18 15.5944 43.18ZM15.5944 42.334C16.3144 42.334 16.8504 42.096 17.2024 41.62C17.5544 41.14 17.7304 40.518 17.7304 39.754C17.7304 38.97 17.5524 38.346 17.1964 37.882C16.8444 37.418 16.3104 37.186 15.5944 37.186C15.1104 37.186 14.7104 37.296 14.3944 37.516C14.0824 37.732 13.8484 38.034 13.6924 38.422C13.5404 38.806 13.4644 39.25 13.4644 39.754C13.4644 40.534 13.6444 41.16 14.0044 41.632C14.3644 42.1 14.8944 42.334 15.5944 42.334ZM20.832 43V36.04C20.832 35.872 20.84 35.706 20.856 35.542C20.876 35.378 20.914 35.222 20.97 35.074C21.026 34.922 21.114 34.782 21.234 34.654C21.366 34.51 21.51 34.406 21.666 34.342C21.822 34.274 21.984 34.23 22.152 34.21C22.324 34.19 22.492 34.18 22.656 34.18H23.484V34.924H22.716C22.38 34.924 22.128 35.006 21.96 35.17C21.796 35.334 21.714 35.592 21.714 35.944V43H20.832ZM19.71 37.276V36.52H23.484V37.276H19.71ZM24.744 35.29V34.3H25.626V35.29H24.744ZM24.744 43V36.52H25.626V43H24.744ZM27.7405 43V34.18H28.6225V43H27.7405ZM33.3633 43.18C32.7313 43.18 32.1833 43.04 31.7193 42.76C31.2593 42.48 30.9013 42.086 30.6453 41.578C30.3893 41.07 30.2613 40.474 30.2613 39.79C30.2613 39.082 30.3873 38.47 30.6393 37.954C30.8913 37.438 31.2453 37.04 31.7013 36.76C32.1613 36.48 32.7033 36.34 33.3273 36.34C33.9673 36.34 34.5133 36.488 34.9653 36.784C35.4173 37.076 35.7593 37.496 35.9913 38.044C36.2233 38.592 36.3293 39.246 36.3093 40.006H35.4093V39.694C35.3933 38.854 35.2113 38.22 34.8633 37.792C34.5193 37.364 34.0153 37.15 33.3513 37.15C32.6553 37.15 32.1213 37.376 31.7493 37.828C31.3813 38.28 31.1973 38.924 31.1973 39.76C31.1973 40.576 31.3813 41.21 31.7493 41.662C32.1213 42.11 32.6473 42.334 33.3273 42.334C33.7913 42.334 34.1953 42.228 34.5393 42.016C34.8873 41.8 35.1613 41.49 35.3613 41.086L36.1833 41.404C35.9273 41.968 35.5493 42.406 35.0493 42.718C34.5533 43.026 33.9913 43.18 33.3633 43.18ZM30.8853 40.006V39.268H35.8353V40.006H30.8853Z" fill="#64748B"/>
</svg>
