<svg width="91" height="24" viewBox="0 0 91 24" fill="none" xmlns="http://www.w3.org/2000/svg">
<path d="M81.2101 6.95589L85.9943 5.98086L87.3328 8.03294L84.843 12.5258L83.7722 10.8842L85.2102 8.23049L85.0954 8.0546L82.2808 8.59755L81.2101 6.95589Z" fill="#E41447"/>
<mask id="path-2-outside-1_116_6268" maskUnits="userSpaceOnUse" x="0.176758" y="3" width="82" height="18" fill="black">
<rect fill="white" x="0.176758" y="3" width="82" height="18"/>
<path d="M1.87035 19V5H11.7104V7.24H4.25035V11.36H10.1104V13.54H4.25035V19H1.87035ZM15.6618 19.24C14.7951 19.24 13.9951 19.02 13.2618 18.58C12.5418 18.1267 11.9684 17.5 11.5418 16.7C11.1151 15.8867 10.9018 14.9733 10.9018 13.96C10.9018 12.9333 11.1151 12.02 11.5418 11.22C11.9684 10.4067 12.5418 9.78 13.2618 9.34C13.9951 8.88667 14.7951 8.66 15.6618 8.66C16.2884 8.66 16.8351 8.76667 17.3018 8.98C17.7818 9.18 18.1684 9.42 18.4618 9.7C18.7551 9.98 18.9484 10.2 19.0418 10.36H19.1018V8.9H21.3018V19H19.1018V17.54H19.0418C18.9484 17.7133 18.7551 17.94 18.4618 18.22C18.1684 18.4867 17.7818 18.7267 17.3018 18.94C16.8351 19.14 16.2884 19.24 15.6618 19.24ZM16.1018 17.3C16.6618 17.3 17.1684 17.1667 17.6218 16.9C18.0884 16.62 18.4484 16.2267 18.7018 15.72C18.9684 15.2133 19.1018 14.6267 19.1018 13.96C19.1018 13.28 18.9684 12.6867 18.7018 12.18C18.4484 11.6733 18.0884 11.2867 17.6218 11.02C17.1684 10.74 16.6618 10.6 16.1018 10.6C15.5551 10.6 15.0551 10.74 14.6018 11.02C14.1484 11.2867 13.7884 11.6733 13.5218 12.18C13.2684 12.6867 13.1418 13.28 13.1418 13.96C13.1418 14.6267 13.2684 15.2133 13.5218 15.72C13.7884 16.2267 14.1484 16.62 14.6018 16.9C15.0551 17.1667 15.5551 17.3 16.1018 17.3ZM22.4055 19V8.9H24.5855V10.36H24.6455C24.9388 9.88 25.3655 9.48 25.9255 9.16C26.4988 8.82667 27.1722 8.66 27.9455 8.66C29.1855 8.66 30.1588 9.04 30.8655 9.8C31.5855 10.5467 31.9455 11.6 31.9455 12.96V19H29.7455V13.2C29.7455 12.3333 29.5322 11.6867 29.1055 11.26C28.6788 10.82 28.0922 10.6 27.3455 10.6C26.8255 10.6 26.3588 10.7267 25.9455 10.98C25.5322 11.22 25.1988 11.5733 24.9455 12.04C24.7055 12.4933 24.5855 13.0133 24.5855 13.6V19H22.4055ZM35.6586 19L31.9986 5H34.4986L37.4986 16.76H39.5586L42.5586 5H45.0386L41.3986 19H35.6586ZM49.2855 19.24C48.2988 19.24 47.4055 19.0133 46.6055 18.56C45.8055 18.0933 45.1722 17.46 44.7055 16.66C44.2388 15.8467 44.0055 14.9467 44.0055 13.96C44.0055 12.9733 44.2388 12.0733 44.7055 11.26C45.1722 10.4467 45.8055 9.81333 46.6055 9.36C47.4055 8.89333 48.2988 8.66 49.2855 8.66C50.2855 8.66 51.1855 8.89333 51.9855 9.36C52.7855 9.81333 53.4122 10.4467 53.8655 11.26C54.3188 12.06 54.5455 12.94 54.5455 13.9V14.5H46.2455C46.3122 15.02 46.4855 15.4933 46.7655 15.92C47.0588 16.3467 47.4255 16.6867 47.8655 16.94C48.3055 17.18 48.7788 17.3 49.2855 17.3C49.9788 17.3 50.5655 17.16 51.0455 16.88C51.5255 16.5867 51.8788 16.2267 52.1055 15.8H54.3855C54.0522 16.76 53.4522 17.5733 52.5855 18.24C51.7322 18.9067 50.6322 19.24 49.2855 19.24ZM52.2055 12.96C52.1388 12.5333 51.9722 12.14 51.7055 11.78C51.4522 11.42 51.1122 11.1333 50.6855 10.92C50.2722 10.7067 49.8055 10.6 49.2855 10.6C48.7788 10.6 48.3122 10.7067 47.8855 10.92C47.4722 11.1333 47.1322 11.42 46.8655 11.78C46.5988 12.14 46.4122 12.5333 46.3055 12.96H52.2055ZM55.1 19V8.9H57.28V10.46H57.34C57.5667 9.98 57.92 9.58 58.4 9.26C58.8934 8.92667 59.4867 8.76 60.18 8.76H61.38V10.9H60.04C59.4934 10.9 59.0134 11.0133 58.6 11.24C58.1867 11.4667 57.86 11.7867 57.62 12.2C57.3934 12.6 57.28 13.0667 57.28 13.6V19H55.1ZM65.6916 19.24C64.7583 19.24 63.9583 19.08 63.2916 18.76C62.6249 18.4267 62.0916 18.0067 61.6916 17.5C61.2916 16.98 61.0116 16.4133 60.8516 15.8H63.1316C63.3049 16.24 63.6049 16.6133 64.0316 16.92C64.4716 17.2133 65.0249 17.36 65.6916 17.36C66.4249 17.36 66.9583 17.2467 67.2916 17.02C67.6249 16.7933 67.7916 16.4867 67.7916 16.1C67.7916 15.86 67.6916 15.6667 67.4916 15.52C67.2916 15.36 67.0383 15.2333 66.7316 15.14C66.4249 15.0467 65.9983 14.94 65.4516 14.82C64.5983 14.6333 63.8983 14.44 63.3516 14.24C62.8183 14.04 62.3516 13.7333 61.9516 13.32C61.5516 12.8933 61.3516 12.32 61.3516 11.6C61.3516 11.08 61.5049 10.5933 61.8116 10.14C62.1316 9.68667 62.5916 9.32667 63.1916 9.06C63.8049 8.79333 64.5383 8.66 65.3916 8.66C66.6983 8.66 67.7316 8.96667 68.4916 9.58C69.2516 10.18 69.7316 10.92 69.9316 11.8H67.6916C67.5583 11.4533 67.2983 11.16 66.9116 10.92C66.5249 10.6667 66.0183 10.54 65.3916 10.54C64.9916 10.54 64.6583 10.5933 64.3916 10.7C64.1249 10.7933 63.9249 10.92 63.7916 11.08C63.6583 11.24 63.5916 11.4133 63.5916 11.6C63.5916 11.84 63.6916 12.04 63.8916 12.2C64.0916 12.3467 64.3449 12.4667 64.6516 12.56C64.9583 12.6533 65.3849 12.76 65.9316 12.88C66.7849 13.0667 67.4783 13.26 68.0116 13.46C68.5583 13.66 69.0316 13.9733 69.4316 14.4C69.8316 14.8133 70.0316 15.38 70.0316 16.1C70.0316 16.6733 69.8649 17.2 69.5316 17.68C69.1983 18.1467 68.6983 18.5267 68.0316 18.82C67.3783 19.1 66.5983 19.24 65.6916 19.24ZM75.2222 19.24C74.2356 19.24 73.3422 19.0133 72.5422 18.56C71.7422 18.0933 71.1089 17.46 70.6422 16.66C70.1756 15.8467 69.9422 14.9467 69.9422 13.96C69.9422 12.9733 70.1756 12.0733 70.6422 11.26C71.1089 10.4467 71.7422 9.81333 72.5422 9.36C73.3422 8.89333 74.2356 8.66 75.2222 8.66C76.2222 8.66 77.1222 8.89333 77.9222 9.36C78.7222 9.81333 79.3489 10.4467 79.8022 11.26C80.2556 12.06 80.4822 12.94 80.4822 13.9V14.5H72.1822C72.2489 15.02 72.4222 15.4933 72.7022 15.92C72.9956 16.3467 73.3622 16.6867 73.8022 16.94C74.2422 17.18 74.7156 17.3 75.2222 17.3C75.9156 17.3 76.5022 17.16 76.9822 16.88C77.4622 16.5867 77.8156 16.2267 78.0422 15.8H80.3222C79.9889 16.76 79.3889 17.5733 78.5222 18.24C77.6689 18.9067 76.5689 19.24 75.2222 19.24ZM78.1422 12.96C78.0756 12.5333 77.9089 12.14 77.6422 11.78C77.3889 11.42 77.0489 11.1333 76.6222 10.92C76.2089 10.7067 75.7422 10.6 75.2222 10.6C74.7156 10.6 74.2489 10.7067 73.8222 10.92C73.4089 11.1333 73.0689 11.42 72.8022 11.78C72.5356 12.14 72.3489 12.5333 72.2422 12.96H78.1422Z"/>
</mask>
<path d="M1.87035 19V5H11.7104V7.24H4.25035V11.36H10.1104V13.54H4.25035V19H1.87035ZM15.6618 19.24C14.7951 19.24 13.9951 19.02 13.2618 18.58C12.5418 18.1267 11.9684 17.5 11.5418 16.7C11.1151 15.8867 10.9018 14.9733 10.9018 13.96C10.9018 12.9333 11.1151 12.02 11.5418 11.22C11.9684 10.4067 12.5418 9.78 13.2618 9.34C13.9951 8.88667 14.7951 8.66 15.6618 8.66C16.2884 8.66 16.8351 8.76667 17.3018 8.98C17.7818 9.18 18.1684 9.42 18.4618 9.7C18.7551 9.98 18.9484 10.2 19.0418 10.36H19.1018V8.9H21.3018V19H19.1018V17.54H19.0418C18.9484 17.7133 18.7551 17.94 18.4618 18.22C18.1684 18.4867 17.7818 18.7267 17.3018 18.94C16.8351 19.14 16.2884 19.24 15.6618 19.24ZM16.1018 17.3C16.6618 17.3 17.1684 17.1667 17.6218 16.9C18.0884 16.62 18.4484 16.2267 18.7018 15.72C18.9684 15.2133 19.1018 14.6267 19.1018 13.96C19.1018 13.28 18.9684 12.6867 18.7018 12.18C18.4484 11.6733 18.0884 11.2867 17.6218 11.02C17.1684 10.74 16.6618 10.6 16.1018 10.6C15.5551 10.6 15.0551 10.74 14.6018 11.02C14.1484 11.2867 13.7884 11.6733 13.5218 12.18C13.2684 12.6867 13.1418 13.28 13.1418 13.96C13.1418 14.6267 13.2684 15.2133 13.5218 15.72C13.7884 16.2267 14.1484 16.62 14.6018 16.9C15.0551 17.1667 15.5551 17.3 16.1018 17.3ZM22.4055 19V8.9H24.5855V10.36H24.6455C24.9388 9.88 25.3655 9.48 25.9255 9.16C26.4988 8.82667 27.1722 8.66 27.9455 8.66C29.1855 8.66 30.1588 9.04 30.8655 9.8C31.5855 10.5467 31.9455 11.6 31.9455 12.96V19H29.7455V13.2C29.7455 12.3333 29.5322 11.6867 29.1055 11.26C28.6788 10.82 28.0922 10.6 27.3455 10.6C26.8255 10.6 26.3588 10.7267 25.9455 10.98C25.5322 11.22 25.1988 11.5733 24.9455 12.04C24.7055 12.4933 24.5855 13.0133 24.5855 13.6V19H22.4055ZM35.6586 19L31.9986 5H34.4986L37.4986 16.76H39.5586L42.5586 5H45.0386L41.3986 19H35.6586ZM49.2855 19.24C48.2988 19.24 47.4055 19.0133 46.6055 18.56C45.8055 18.0933 45.1722 17.46 44.7055 16.66C44.2388 15.8467 44.0055 14.9467 44.0055 13.96C44.0055 12.9733 44.2388 12.0733 44.7055 11.26C45.1722 10.4467 45.8055 9.81333 46.6055 9.36C47.4055 8.89333 48.2988 8.66 49.2855 8.66C50.2855 8.66 51.1855 8.89333 51.9855 9.36C52.7855 9.81333 53.4122 10.4467 53.8655 11.26C54.3188 12.06 54.5455 12.94 54.5455 13.9V14.5H46.2455C46.3122 15.02 46.4855 15.4933 46.7655 15.92C47.0588 16.3467 47.4255 16.6867 47.8655 16.94C48.3055 17.18 48.7788 17.3 49.2855 17.3C49.9788 17.3 50.5655 17.16 51.0455 16.88C51.5255 16.5867 51.8788 16.2267 52.1055 15.8H54.3855C54.0522 16.76 53.4522 17.5733 52.5855 18.24C51.7322 18.9067 50.6322 19.24 49.2855 19.24ZM52.2055 12.96C52.1388 12.5333 51.9722 12.14 51.7055 11.78C51.4522 11.42 51.1122 11.1333 50.6855 10.92C50.2722 10.7067 49.8055 10.6 49.2855 10.6C48.7788 10.6 48.3122 10.7067 47.8855 10.92C47.4722 11.1333 47.1322 11.42 46.8655 11.78C46.5988 12.14 46.4122 12.5333 46.3055 12.96H52.2055ZM55.1 19V8.9H57.28V10.46H57.34C57.5667 9.98 57.92 9.58 58.4 9.26C58.8934 8.92667 59.4867 8.76 60.18 8.76H61.38V10.9H60.04C59.4934 10.9 59.0134 11.0133 58.6 11.24C58.1867 11.4667 57.86 11.7867 57.62 12.2C57.3934 12.6 57.28 13.0667 57.28 13.6V19H55.1ZM65.6916 19.24C64.7583 19.24 63.9583 19.08 63.2916 18.76C62.6249 18.4267 62.0916 18.0067 61.6916 17.5C61.2916 16.98 61.0116 16.4133 60.8516 15.8H63.1316C63.3049 16.24 63.6049 16.6133 64.0316 16.92C64.4716 17.2133 65.0249 17.36 65.6916 17.36C66.4249 17.36 66.9583 17.2467 67.2916 17.02C67.6249 16.7933 67.7916 16.4867 67.7916 16.1C67.7916 15.86 67.6916 15.6667 67.4916 15.52C67.2916 15.36 67.0383 15.2333 66.7316 15.14C66.4249 15.0467 65.9983 14.94 65.4516 14.82C64.5983 14.6333 63.8983 14.44 63.3516 14.24C62.8183 14.04 62.3516 13.7333 61.9516 13.32C61.5516 12.8933 61.3516 12.32 61.3516 11.6C61.3516 11.08 61.5049 10.5933 61.8116 10.14C62.1316 9.68667 62.5916 9.32667 63.1916 9.06C63.8049 8.79333 64.5383 8.66 65.3916 8.66C66.6983 8.66 67.7316 8.96667 68.4916 9.58C69.2516 10.18 69.7316 10.92 69.9316 11.8H67.6916C67.5583 11.4533 67.2983 11.16 66.9116 10.92C66.5249 10.6667 66.0183 10.54 65.3916 10.54C64.9916 10.54 64.6583 10.5933 64.3916 10.7C64.1249 10.7933 63.9249 10.92 63.7916 11.08C63.6583 11.24 63.5916 11.4133 63.5916 11.6C63.5916 11.84 63.6916 12.04 63.8916 12.2C64.0916 12.3467 64.3449 12.4667 64.6516 12.56C64.9583 12.6533 65.3849 12.76 65.9316 12.88C66.7849 13.0667 67.4783 13.26 68.0116 13.46C68.5583 13.66 69.0316 13.9733 69.4316 14.4C69.8316 14.8133 70.0316 15.38 70.0316 16.1C70.0316 16.6733 69.8649 17.2 69.5316 17.68C69.1983 18.1467 68.6983 18.5267 68.0316 18.82C67.3783 19.1 66.5983 19.24 65.6916 19.24ZM75.2222 19.24C74.2356 19.24 73.3422 19.0133 72.5422 18.56C71.7422 18.0933 71.1089 17.46 70.6422 16.66C70.1756 15.8467 69.9422 14.9467 69.9422 13.96C69.9422 12.9733 70.1756 12.0733 70.6422 11.26C71.1089 10.4467 71.7422 9.81333 72.5422 9.36C73.3422 8.89333 74.2356 8.66 75.2222 8.66C76.2222 8.66 77.1222 8.89333 77.9222 9.36C78.7222 9.81333 79.3489 10.4467 79.8022 11.26C80.2556 12.06 80.4822 12.94 80.4822 13.9V14.5H72.1822C72.2489 15.02 72.4222 15.4933 72.7022 15.92C72.9956 16.3467 73.3622 16.6867 73.8022 16.94C74.2422 17.18 74.7156 17.3 75.2222 17.3C75.9156 17.3 76.5022 17.16 76.9822 16.88C77.4622 16.5867 77.8156 16.2267 78.0422 15.8H80.3222C79.9889 16.76 79.3889 17.5733 78.5222 18.24C77.6689 18.9067 76.5689 19.24 75.2222 19.24ZM78.1422 12.96C78.0756 12.5333 77.9089 12.14 77.6422 11.78C77.3889 11.42 77.0489 11.1333 76.6222 10.92C76.2089 10.7067 75.7422 10.6 75.2222 10.6C74.7156 10.6 74.2489 10.7067 73.8222 10.92C73.4089 11.1333 73.0689 11.42 72.8022 11.78C72.5356 12.14 72.3489 12.5333 72.2422 12.96H78.1422Z" fill="white"/>
<path d="M1.87035 19H0.848457V20.0219H1.87035V19ZM1.87035 5V3.9781H0.848457V5H1.87035ZM11.7104 5H12.7323V3.9781H11.7104V5ZM11.7104 7.24V8.2619H12.7323V7.24H11.7104ZM4.25035 7.24V6.2181H3.22846V7.24H4.25035ZM4.25035 11.36H3.22846V12.3819H4.25035V11.36ZM10.1104 11.36H11.1323V10.3381H10.1104V11.36ZM10.1104 13.54V14.5619H11.1323V13.54H10.1104ZM4.25035 13.54V12.5181H3.22846V13.54H4.25035ZM4.25035 19V20.0219H5.27225V19H4.25035ZM2.89225 19V5H0.848457V19H2.89225ZM1.87035 6.0219H11.7104V3.9781H1.87035V6.0219ZM10.6885 5V7.24H12.7323V5H10.6885ZM11.7104 6.2181H4.25035V8.2619H11.7104V6.2181ZM3.22846 7.24V11.36H5.27225V7.24H3.22846ZM4.25035 12.3819H10.1104V10.3381H4.25035V12.3819ZM9.08846 11.36V13.54H11.1323V11.36H9.08846ZM10.1104 12.5181H4.25035V14.5619H10.1104V12.5181ZM3.22846 13.54V19H5.27225V13.54H3.22846ZM4.25035 17.9781H1.87035V20.0219H4.25035V17.9781ZM13.2618 18.58L12.7173 19.4448L12.7266 19.4506L12.736 19.4563L13.2618 18.58ZM11.5418 16.7L10.6368 17.1747L10.6401 17.1809L11.5418 16.7ZM11.5418 11.22L12.4435 11.7009L12.4467 11.6947L11.5418 11.22ZM13.2618 9.34L13.7946 10.212L13.7991 10.2092L13.2618 9.34ZM17.3018 8.98L16.8769 9.90939L16.8927 9.91661L16.9087 9.92329L17.3018 8.98ZM18.4618 9.7L17.7562 10.4392L18.4618 9.7ZM19.0418 10.36L18.1591 10.8749L18.4548 11.3819H19.0418V10.36ZM19.1018 10.36V11.3819H20.1237V10.36H19.1018ZM19.1018 8.9V7.8781H18.0799V8.9H19.1018ZM21.3018 8.9H22.3237V7.8781H21.3018V8.9ZM21.3018 19V20.0219H22.3237V19H21.3018ZM19.1018 19H18.0799V20.0219H19.1018V19ZM19.1018 17.54H20.1237V16.5181H19.1018V17.54ZM19.0418 17.54V16.5181H18.4314L18.142 17.0555L19.0418 17.54ZM18.4618 18.22L19.1492 18.9761L19.1584 18.9678L19.1674 18.9592L18.4618 18.22ZM17.3018 18.94L17.7043 19.8794L17.7168 19.8738L17.3018 18.94ZM17.6218 16.9L18.1399 17.7808L18.1475 17.7763L17.6218 16.9ZM18.7018 15.72L17.7975 15.2441L17.7925 15.2535L17.7877 15.263L18.7018 15.72ZM18.7018 12.18L17.7877 12.637L17.7925 12.6465L17.7975 12.6559L18.7018 12.18ZM17.6218 11.02L17.0848 11.8894L17.0996 11.8986L17.1148 11.9073L17.6218 11.02ZM14.6018 11.02L15.1199 11.9008L15.1294 11.8952L15.1388 11.8894L14.6018 11.02ZM13.5218 12.18L12.6175 11.7041L12.6125 11.7135L12.6077 11.723L13.5218 12.18ZM13.5218 15.72L12.6077 16.177L12.6125 16.1865L12.6175 16.1959L13.5218 15.72ZM14.6018 16.9L14.0648 17.7694L14.0741 17.7752L14.0836 17.7808L14.6018 16.9ZM15.6618 18.2181C14.9777 18.2181 14.3598 18.0471 13.7875 17.7037L12.736 19.4563C13.6304 19.9929 14.6125 20.2619 15.6618 20.2619V18.2181ZM13.8062 17.7152C13.2466 17.3628 12.7921 16.8729 12.4434 16.2191L10.6401 17.1809C11.1447 18.1271 11.837 18.8905 12.7173 19.4448L13.8062 17.7152ZM12.4467 16.2253C12.1046 15.5731 11.9237 14.8254 11.9237 13.96H9.87986C9.87986 15.1213 10.1256 16.2003 10.6368 17.1747L12.4467 16.2253ZM11.9237 13.96C11.9237 13.0786 12.1056 12.3343 12.4434 11.7009L10.6401 10.7391C10.1245 11.7057 9.87986 12.7881 9.87986 13.96H11.9237ZM12.4467 11.6947C12.7954 11.03 13.2461 10.5472 13.7946 10.212L12.7289 8.46803C11.8374 9.01282 11.1415 9.78329 10.6368 10.7453L12.4467 11.6947ZM13.7991 10.2092C14.3701 9.85625 14.9839 9.6819 15.6618 9.6819V7.6381C14.6063 7.6381 13.6201 7.91708 12.7244 8.47078L13.7991 10.2092ZM15.6618 9.6819C16.1736 9.6819 16.5697 9.76896 16.8769 9.90939L17.7266 8.05061C17.1005 7.76437 16.4033 7.6381 15.6618 7.6381V9.6819ZM16.9087 9.92329C17.3041 10.088 17.5752 10.2665 17.7562 10.4392L19.1674 8.9608C18.7616 8.57354 18.2594 8.27197 17.6948 8.03671L16.9087 9.92329ZM17.7562 10.4392C17.8888 10.5658 17.9881 10.6687 18.0591 10.7496C18.0943 10.7896 18.1197 10.821 18.1372 10.8442C18.1552 10.8681 18.1608 10.8779 18.1591 10.8749L19.9245 9.8451C19.7532 9.55155 19.4678 9.24763 19.1674 8.9608L17.7562 10.4392ZM19.0418 11.3819H19.1018V9.3381H19.0418V11.3819ZM20.1237 10.36V8.9H18.0799V10.36H20.1237ZM19.1018 9.9219H21.3018V7.8781H19.1018V9.9219ZM20.2799 8.9V19H22.3237V8.9H20.2799ZM21.3018 17.9781H19.1018V20.0219H21.3018V17.9781ZM20.1237 19V17.54H18.0799V19H20.1237ZM19.1018 16.5181H19.0418V18.5619H19.1018V16.5181ZM18.142 17.0555C18.1423 17.0549 18.1203 17.0936 18.0493 17.1768C17.9817 17.2561 17.8859 17.357 17.7562 17.4808L19.1674 18.9592C19.4742 18.6663 19.7676 18.3475 19.9415 18.0245L18.142 17.0555ZM17.7744 17.4639C17.5831 17.6377 17.2974 17.8236 16.8867 18.0062L17.7168 19.8738C18.2661 19.6297 18.7537 19.3356 19.1492 18.9761L17.7744 17.4639ZM16.8992 18.0007C16.5858 18.135 16.1815 18.2181 15.6618 18.2181V20.2619C16.3953 20.2619 17.0844 20.145 17.7043 19.8793L16.8992 18.0007ZM16.1018 18.3219C16.8317 18.3219 17.5193 18.1459 18.1399 17.7808L17.1036 16.0192C16.8176 16.1875 16.4918 16.2781 16.1018 16.2781V18.3219ZM18.1475 17.7763C18.7879 17.3921 19.2793 16.85 19.6158 16.177L17.7877 15.263C17.6176 15.6033 17.389 15.8479 17.096 16.0237L18.1475 17.7763ZM19.6061 16.1959C19.9618 15.5201 20.1237 14.7652 20.1237 13.96H18.0799C18.0799 14.4882 17.9751 14.9066 17.7975 15.2441L19.6061 16.1959ZM20.1237 13.96C20.1237 13.1452 19.9632 12.3827 19.6061 11.7041L17.7975 12.6559C17.9736 12.9907 18.0799 13.4148 18.0799 13.96H20.1237ZM19.6158 11.723C19.2773 11.0461 18.7803 10.505 18.1288 10.1327L17.1148 11.9073C17.3966 12.0683 17.6195 12.3005 17.7877 12.637L19.6158 11.723ZM18.1588 10.1506C17.5356 9.76571 16.8413 9.5781 16.1018 9.5781V11.6219C16.4822 11.6219 16.8012 11.7143 17.0848 11.8894L18.1588 10.1506ZM16.1018 9.5781C15.3706 9.5781 14.6838 9.7682 14.0648 10.1506L15.1388 11.8894C15.4264 11.7118 15.7396 11.6219 16.1018 11.6219V9.5781ZM14.0836 10.1392C13.452 10.5107 12.9645 11.0446 12.6175 11.7041L14.4261 12.6559C14.6123 12.3021 14.8449 12.0626 15.1199 11.9008L14.0836 10.1392ZM12.6077 11.723C12.2706 12.3972 12.1199 13.1528 12.1199 13.96H14.1637C14.1637 13.4072 14.2662 12.9761 14.4358 12.637L12.6077 11.723ZM12.1199 13.96C12.1199 14.7574 12.2719 15.5054 12.6077 16.177L14.4358 15.263C14.2649 14.9213 14.1637 14.496 14.1637 13.96H12.1199ZM12.6175 16.1959C12.9626 16.8518 13.4445 17.3863 14.0648 17.7694L15.1388 16.0306C14.8524 15.8537 14.6142 15.6016 14.4261 15.2441L12.6175 16.1959ZM14.0836 17.7808C14.7004 18.1436 15.3804 18.3219 16.1018 18.3219V16.2781C15.7298 16.2781 15.4098 16.1898 15.1199 16.0192L14.0836 17.7808ZM22.4055 19H21.3836V20.0219H22.4055V19ZM22.4055 8.9V7.8781H21.3836V8.9H22.4055ZM24.5855 8.9H25.6074V7.8781H24.5855V8.9ZM24.5855 10.36H23.5636V11.3819H24.5855V10.36ZM24.6455 10.36V11.3819H25.2186L25.5175 10.8929L24.6455 10.36ZM25.9255 9.16L26.4325 10.0473L26.4391 10.0434L25.9255 9.16ZM30.8655 9.8L30.1171 10.4959L30.1235 10.5027L30.1299 10.5093L30.8655 9.8ZM31.9455 19V20.0219H32.9674V19H31.9455ZM29.7455 19H28.7236V20.0219H29.7455V19ZM29.1055 11.26L28.3719 11.9714L28.3774 11.977L28.3829 11.9826L29.1055 11.26ZM25.9455 10.98L26.4586 11.8637L26.4692 11.8576L26.4795 11.8513L25.9455 10.98ZM24.9455 12.04L24.0474 11.5524L24.0424 11.5619L24.9455 12.04ZM24.5855 19V20.0219H25.6074V19H24.5855ZM23.4274 19V8.9H21.3836V19H23.4274ZM22.4055 9.9219H24.5855V7.8781H22.4055V9.9219ZM23.5636 8.9V10.36H25.6074V8.9H23.5636ZM24.5855 11.3819H24.6455V9.3381H24.5855V11.3819ZM25.5175 10.8929C25.7085 10.5802 25.9999 10.2944 26.4325 10.0473L25.4185 8.27274C24.7311 8.66556 24.1691 9.17978 23.7735 9.82713L25.5175 10.8929ZM26.4391 10.0434C26.8322 9.81489 27.3223 9.6819 27.9455 9.6819V7.6381C27.022 7.6381 26.1654 7.83845 25.4119 8.27656L26.4391 10.0434ZM27.9455 9.6819C28.9616 9.6819 29.6412 9.98398 30.1171 10.4959L31.6139 9.10415C30.6765 8.09602 29.4094 7.6381 27.9455 7.6381V9.6819ZM30.1299 10.5093C30.6146 11.012 30.9236 11.7795 30.9236 12.96H32.9674C32.9674 11.4205 32.5564 10.0813 31.6011 9.09066L30.1299 10.5093ZM30.9236 12.96V19H32.9674V12.96H30.9236ZM31.9455 17.9781H29.7455V20.0219H31.9455V17.9781ZM30.7674 19V13.2H28.7236V19H30.7674ZM30.7674 13.2C30.7674 12.1812 30.5167 11.226 29.8281 10.5374L28.3829 11.9826C28.5477 12.1474 28.7236 12.4855 28.7236 13.2H30.7674ZM29.8391 10.5486C29.1793 9.86811 28.3041 9.5781 27.3455 9.5781V11.6219C27.8803 11.6219 28.1784 11.7719 28.3719 11.9714L29.8391 10.5486ZM27.3455 9.5781C26.6513 9.5781 25.9973 9.74972 25.4115 10.1087L26.4795 11.8513C26.7204 11.7036 26.9998 11.6219 27.3455 11.6219V9.5781ZM25.4324 10.0963C24.8392 10.4407 24.38 10.9397 24.0474 11.5525L25.8436 12.5275C26.0177 12.2069 26.2252 11.9993 26.4586 11.8637L25.4324 10.0963ZM24.0424 11.5619C23.7138 12.1825 23.5636 12.8708 23.5636 13.6H25.6074C25.6074 13.1559 25.6972 12.8042 25.8487 12.5181L24.0424 11.5619ZM23.5636 13.6V19H25.6074V13.6H23.5636ZM24.5855 17.9781H22.4055V20.0219H24.5855V17.9781ZM35.6586 19L34.67 19.2585L34.8695 20.0219H35.6586V19ZM31.9986 5V3.9781H30.6752L31.01 5.25847L31.9986 5ZM34.4986 5L35.4888 4.7474L35.2926 3.9781H34.4986V5ZM37.4986 16.76L36.5084 17.0126L36.7047 17.7819H37.4986V16.76ZM39.5586 16.76V17.7819H40.3526L40.5488 17.0126L39.5586 16.76ZM42.5586 5V3.9781H41.7647L41.5685 4.7474L42.5586 5ZM45.0386 5L46.0277 5.25714L46.3602 3.9781H45.0386V5ZM41.3986 19V20.0219H42.1888L42.3876 19.2571L41.3986 19ZM36.6473 18.7415L32.9873 4.74153L31.01 5.25847L34.67 19.2585L36.6473 18.7415ZM31.9986 6.0219H34.4986V3.9781H31.9986V6.0219ZM33.5084 5.2526L36.5084 17.0126L38.4888 16.5074L35.4888 4.7474L33.5084 5.2526ZM37.4986 17.7819H39.5586V15.7381H37.4986V17.7819ZM40.5488 17.0126L43.5488 5.2526L41.5685 4.7474L38.5684 16.5074L40.5488 17.0126ZM42.5586 6.0219H45.0386V3.9781H42.5586V6.0219ZM44.0496 4.74286L40.4096 18.7429L42.3876 19.2571L46.0277 5.25714L44.0496 4.74286ZM41.3986 17.9781H35.6586V20.0219H41.3986V17.9781ZM46.6055 18.56L46.0906 19.4428L46.1017 19.4491L46.6055 18.56ZM44.7055 16.66L43.8191 17.1686L43.8228 17.1749L44.7055 16.66ZM44.7055 11.26L43.8192 10.7514L44.7055 11.26ZM46.6055 9.36L47.1094 10.2491L47.1204 10.2427L46.6055 9.36ZM51.9855 9.36L51.4706 10.2428L51.4817 10.2491L51.9855 9.36ZM53.8655 11.26L52.9729 11.7575L52.9764 11.7638L53.8655 11.26ZM54.5455 14.5V15.5219H55.5674V14.5H54.5455ZM46.2455 14.5V13.4781H45.0842L45.2319 14.6299L46.2455 14.5ZM46.7655 15.92L45.9112 16.4807L45.9172 16.4899L45.9234 16.4989L46.7655 15.92ZM47.8655 16.94L47.3556 17.8256L47.3658 17.8315L47.3762 17.8371L47.8655 16.94ZM51.0455 16.88L51.5604 17.7627L51.5695 17.7574L51.5784 17.752L51.0455 16.88ZM52.1055 15.8V14.7781H51.4912L51.2031 15.3206L52.1055 15.8ZM54.3855 15.8L55.3509 16.1352L55.8221 14.7781H54.3855V15.8ZM52.5855 18.24L51.9624 17.43L51.9564 17.4347L52.5855 18.24ZM52.2055 12.96V13.9819H53.3995L53.2152 12.8022L52.2055 12.96ZM51.7055 11.78L50.8698 12.3681L50.877 12.3783L50.8844 12.3883L51.7055 11.78ZM50.6855 10.92L50.2168 11.8282L50.2285 11.834L50.6855 10.92ZM47.8855 10.92L47.4285 10.0059L47.4168 10.0119L47.8855 10.92ZM46.8655 11.78L46.0444 11.1717L46.8655 11.78ZM46.3055 12.96L45.3141 12.7122L44.9967 13.9819H46.3055V12.96ZM49.2855 18.2181C48.4621 18.2181 47.7445 18.0309 47.1093 17.6709L46.1017 19.4491C47.0665 19.9958 48.1356 20.2619 49.2855 20.2619V18.2181ZM47.1204 17.6773C46.4727 17.2995 45.966 16.7928 45.5882 16.1451L43.8228 17.1749C44.3783 18.1272 45.1383 18.8872 46.0906 19.4427L47.1204 17.6773ZM45.5919 16.1514C45.2187 15.5011 45.0274 14.7779 45.0274 13.96H42.9836C42.9836 15.1154 43.259 16.1923 43.8192 17.1686L45.5919 16.1514ZM45.0274 13.96C45.0274 13.1421 45.2187 12.4189 45.5919 11.7686L43.8192 10.7514C43.259 11.7277 42.9836 12.8046 42.9836 13.96H45.0274ZM45.5919 11.7686C45.9693 11.1108 46.4719 10.6103 47.1093 10.2491L46.1017 8.47093C45.1391 9.01639 44.375 9.78258 43.8192 10.7514L45.5919 11.7686ZM47.1204 10.2427C47.7539 9.87318 48.4675 9.6819 49.2855 9.6819V7.6381C48.1302 7.6381 47.0572 7.91349 46.0906 8.47731L47.1204 10.2427ZM49.2855 9.6819C50.1195 9.6819 50.8393 9.87442 51.4706 10.2427L52.5004 8.47731C51.5317 7.91224 50.4515 7.6381 49.2855 7.6381V9.6819ZM51.4817 10.2491C52.1165 10.6088 52.6096 11.1057 52.9729 11.7575L54.7581 10.7625C54.2148 9.78763 53.4545 9.01788 52.4893 8.47093L51.4817 10.2491ZM52.9764 11.7638C53.3388 12.4033 53.5236 13.1085 53.5236 13.9H55.5674C55.5674 12.7715 55.2989 11.7167 54.7546 10.7562L52.9764 11.7638ZM53.5236 13.9V14.5H55.5674V13.9H53.5236ZM54.5455 13.4781H46.2455V15.5219H54.5455V13.4781ZM45.2319 14.6299C45.3177 15.2994 45.5437 15.9208 45.9112 16.4807L47.6199 15.3593C47.4273 15.0659 47.3066 14.7406 47.2591 14.3701L45.2319 14.6299ZM45.9234 16.4989C46.3014 17.0488 46.7807 17.4946 47.3556 17.8256L48.3754 16.0544C48.0703 15.8787 47.8163 15.6446 47.6076 15.3411L45.9234 16.4989ZM47.3762 17.8371C47.968 18.1599 48.6098 18.3219 49.2855 18.3219V16.2781C48.9479 16.2781 48.643 16.2001 48.3549 16.0429L47.3762 17.8371ZM49.2855 18.3219C50.1154 18.3219 50.8898 18.1539 51.5604 17.7627L50.5306 15.9973C50.2412 16.1661 49.8423 16.2781 49.2855 16.2781V18.3219ZM51.5784 17.752C52.1885 17.3791 52.6822 16.8926 53.008 16.2794L51.2031 15.3206C51.0755 15.5608 50.8625 15.7942 50.5126 16.008L51.5784 17.752ZM52.1055 16.8219H54.3855V14.7781H52.1055V16.8219ZM53.4202 15.4648C53.1572 16.2221 52.6837 16.8752 51.9625 17.43L53.2086 19.05C54.2206 18.2715 54.9472 17.2979 55.3509 16.1352L53.4202 15.4648ZM51.9564 17.4347C51.3228 17.9297 50.4609 18.2181 49.2855 18.2181V20.2619C50.8034 20.2619 52.1415 19.8837 53.2146 19.0453L51.9564 17.4347ZM53.2152 12.8022C53.122 12.2062 52.8878 11.6593 52.5267 11.1717L50.8844 12.3883C51.0565 12.6207 51.1557 12.8605 51.1959 13.1178L53.2152 12.8022ZM52.5412 11.1919C52.1825 10.6822 51.7075 10.2885 51.1425 10.006L50.2285 11.834C50.5169 11.9782 50.7218 12.1578 50.8698 12.3681L52.5412 11.1919ZM51.1542 10.0119C50.5796 9.71534 49.9491 9.5781 49.2855 9.5781V11.6219C49.6619 11.6219 49.9648 11.698 50.2168 11.8281L51.1542 10.0119ZM49.2855 9.5781C48.6303 9.5781 48.0058 9.71732 47.4285 10.006L48.3425 11.834C48.6185 11.696 48.9274 11.6219 49.2855 11.6219V9.5781ZM47.4168 10.0119C46.8701 10.2941 46.4076 10.6813 46.0444 11.1717L47.6867 12.3883C47.8567 12.1587 48.0743 11.9726 48.3542 11.8281L47.4168 10.0119ZM46.0444 11.1717C45.6994 11.6375 45.4539 12.1529 45.3141 12.7122L47.2969 13.2078C47.3704 12.9138 47.4983 12.6425 47.6867 12.3883L46.0444 11.1717ZM46.3055 13.9819H52.2055V11.9381H46.3055V13.9819ZM55.1 19H54.0781V20.0219H55.1V19ZM55.1 8.9V7.8781H54.0781V8.9H55.1ZM57.28 8.9H58.3019V7.8781H57.28V8.9ZM57.28 10.46H56.2581V11.4819H57.28V10.46ZM57.34 10.46V11.4819H57.9876L58.2641 10.8964L57.34 10.46ZM58.4 9.26L58.9669 10.1103L58.9722 10.1067L58.4 9.26ZM61.38 8.76H62.4019V7.7381H61.38V8.76ZM61.38 10.9V11.9219H62.4019V10.9H61.38ZM58.6 11.24L59.0914 12.136L58.6 11.24ZM57.62 12.2L56.7363 11.6868L56.731 11.6962L57.62 12.2ZM57.28 19V20.0219H58.3019V19H57.28ZM56.1219 19V8.9H54.0781V19H56.1219ZM55.1 9.9219H57.28V7.8781H55.1V9.9219ZM56.2581 8.9V10.46H58.3019V8.9H56.2581ZM57.28 11.4819H57.34V9.4381H57.28V11.4819ZM58.2641 10.8964C58.4047 10.5987 58.6275 10.3365 58.9669 10.1103L57.8332 8.40973C57.2126 8.82345 56.7287 9.36134 56.416 10.0236L58.2641 10.8964ZM58.9722 10.1067C59.2701 9.90541 59.6562 9.7819 60.18 9.7819V7.7381C59.3172 7.7381 58.5166 7.94792 57.8279 8.41327L58.9722 10.1067ZM60.18 9.7819H61.38V7.7381H60.18V9.7819ZM60.3581 8.76V10.9H62.4019V8.76H60.3581ZM61.38 9.8781H60.04V11.9219H61.38V9.8781ZM60.04 9.8781C59.3492 9.8781 58.6951 10.0224 58.1087 10.344L59.0914 12.136C59.3316 12.0043 59.6375 11.9219 60.04 11.9219V9.8781ZM58.1087 10.344C57.5298 10.6615 57.0684 11.1149 56.7363 11.6869L58.5038 12.7131C58.6517 12.4584 58.8437 12.2719 59.0914 12.136L58.1087 10.344ZM56.731 11.6962C56.4042 12.2729 56.2581 12.9186 56.2581 13.6H58.3019C58.3019 13.2147 58.3826 12.9271 58.5091 12.7038L56.731 11.6962ZM56.2581 13.6V19H58.3019V13.6H56.2581ZM57.28 17.9781H55.1V20.0219H57.28V17.9781ZM63.2916 18.76L62.8346 19.674L62.842 19.6777L62.8494 19.6813L63.2916 18.76ZM61.6916 17.5L60.8816 18.1231L60.8895 18.1332L61.6916 17.5ZM60.8516 15.8V14.7781H59.5289L59.8628 16.0579L60.8516 15.8ZM63.1316 15.8L64.0824 15.4254L63.8274 14.7781H63.1316V15.8ZM64.0316 16.92L63.4352 17.7498L63.4498 17.7603L63.4648 17.7703L64.0316 16.92ZM67.2916 17.02L66.717 16.175L67.2916 17.02ZM67.4916 15.52L66.8532 16.318L66.87 16.3314L66.8873 16.3441L67.4916 15.52ZM65.4516 14.82L65.6707 13.8219L65.67 13.8217L65.4516 14.82ZM63.3516 14.24L62.9928 15.1969L63.0005 15.1997L63.3516 14.24ZM61.9516 13.32L61.2061 14.0189L61.2116 14.0248L61.2173 14.0306L61.9516 13.32ZM61.8116 10.14L60.9767 9.55069L60.9709 9.559L60.9652 9.56742L61.8116 10.14ZM63.1916 9.06L62.7841 8.12282L62.7766 8.12618L63.1916 9.06ZM68.4916 9.58L67.8498 10.3753L67.8584 10.3821L68.4916 9.58ZM69.9316 11.8V12.8219H71.2118L70.9281 11.5735L69.9316 11.8ZM67.6916 11.8L66.7378 12.1668L66.9898 12.8219H67.6916V11.8ZM66.9116 10.92L66.3516 11.7748L66.3621 11.7816L66.3727 11.7882L66.9116 10.92ZM64.3916 10.7L64.7292 11.6645L64.7503 11.6571L64.7711 11.6488L64.3916 10.7ZM63.7916 11.08L63.0066 10.4258L63.0066 10.4258L63.7916 11.08ZM63.8916 12.2L63.2532 12.998L63.27 13.0114L63.2873 13.0241L63.8916 12.2ZM65.9316 12.88L65.7125 13.8781L65.7132 13.8783L65.9316 12.88ZM68.0116 13.46L67.6528 14.4169L67.6605 14.4197L68.0116 13.46ZM69.4316 14.4L68.6861 15.0989L68.6916 15.1048L68.6973 15.1107L69.4316 14.4ZM69.5316 17.68L70.3632 18.274L70.371 18.2629L69.5316 17.68ZM68.0316 18.82L68.4342 19.7593L68.4432 19.7554L68.0316 18.82ZM65.6916 18.2181C64.8724 18.2181 64.2312 18.0775 63.7338 17.8387L62.8494 19.6813C63.6854 20.0825 64.6442 20.2619 65.6916 20.2619V18.2181ZM63.7486 17.846C63.1955 17.5694 62.7873 17.2387 62.4937 16.8668L60.8895 18.1332C61.3959 18.7746 62.0544 19.2839 62.8346 19.674L63.7486 17.846ZM62.5016 16.8769C62.1821 16.4616 61.9646 16.0183 61.8404 15.5421L59.8628 16.0579C60.0586 16.8084 60.4011 17.4984 60.8816 18.1231L62.5016 16.8769ZM60.8516 16.8219H63.1316V14.7781H60.8516V16.8219ZM62.1808 16.1746C62.4339 16.8171 62.8675 17.3417 63.4352 17.7498L64.628 16.0902C64.3424 15.8849 64.1759 15.6629 64.0824 15.4254L62.1808 16.1746ZM63.4648 17.7703C64.1116 18.2015 64.8757 18.3819 65.6916 18.3819V16.3381C65.1741 16.3381 64.8316 16.2252 64.5984 16.0697L63.4648 17.7703ZM65.6916 18.3819C66.4845 18.3819 67.2736 18.268 67.8662 17.865L66.717 16.175C66.6429 16.2253 66.3654 16.3381 65.6916 16.3381V18.3819ZM67.8662 17.865C68.4652 17.4578 68.8135 16.8418 68.8135 16.1H66.7697C66.7697 16.1229 66.7673 16.134 66.7668 16.1362C66.7664 16.1378 66.7668 16.1355 66.7687 16.132C66.7706 16.1286 66.7706 16.1299 66.7648 16.1361C66.7587 16.1426 66.7444 16.1563 66.717 16.175L67.8662 17.865ZM68.8135 16.1C68.8135 15.5219 68.5481 15.0275 68.0959 14.6959L66.8873 16.3441C66.878 16.3372 66.8409 16.3062 66.8089 16.2445C66.7764 16.1816 66.7697 16.1263 66.7697 16.1H68.8135ZM68.13 14.722C67.8069 14.4635 67.4297 14.2843 67.0291 14.1624L66.4341 16.1176C66.6468 16.1824 66.7764 16.2565 66.8532 16.318L68.13 14.722ZM67.0291 14.1624C66.6845 14.0575 66.2275 13.9441 65.6707 13.8219L65.2325 15.8181C65.7691 15.9359 66.1654 16.0359 66.4341 16.1176L67.0291 14.1624ZM65.67 13.8217C64.8418 13.6405 64.1904 13.4587 63.7027 13.2803L63.0005 15.1997C63.6061 15.4213 64.3547 15.6261 65.2332 15.8183L65.67 13.8217ZM63.7104 13.2832C63.3204 13.1369 62.9816 12.9149 62.6859 12.6094L61.2173 14.0306C61.7216 14.5518 62.3161 14.9431 62.9928 15.1968L63.7104 13.2832ZM62.6971 12.6211C62.5136 12.4253 62.3735 12.1234 62.3735 11.6H60.3297C60.3297 12.5166 60.5896 13.3614 61.2061 14.0189L62.6971 12.6211ZM62.3735 11.6C62.3735 11.2951 62.4594 11.0062 62.658 10.7126L60.9652 9.56742C60.5505 10.1804 60.3297 10.8649 60.3297 11.6H62.3735ZM62.6465 10.7293C62.8421 10.4522 63.144 10.1995 63.6066 9.99382L62.7766 8.12618C62.0392 8.45388 61.4211 8.92117 60.9767 9.55069L62.6465 10.7293ZM63.5991 9.99715C64.0536 9.79952 64.6413 9.6819 65.3916 9.6819V7.6381C64.4353 7.6381 63.5563 7.78714 62.7841 8.12285L63.5991 9.99715ZM65.3916 9.6819C66.5437 9.6819 67.3248 9.9515 67.8498 10.3752L69.1334 8.78476C68.1384 7.98183 66.8528 7.6381 65.3916 7.6381V9.6819ZM67.8584 10.3821C68.4494 10.8487 68.7908 11.3914 68.9351 12.0265L70.9281 11.5735C70.6724 10.4486 70.0538 9.51132 69.1248 8.77793L67.8584 10.3821ZM69.9316 10.7781H67.6916V12.8219H69.9316V10.7781ZM68.6454 11.4332C68.4155 10.8353 67.9828 10.3821 67.4505 10.0518L66.3727 11.7882C66.6137 11.9379 66.7011 12.0713 66.7378 12.1668L68.6454 11.4332ZM67.4716 10.0652C66.869 9.67043 66.1484 9.5181 65.3916 9.5181V11.5619C65.8881 11.5619 66.1808 11.6629 66.3516 11.7748L67.4716 10.0652ZM65.3916 9.5181C64.909 9.5181 64.4368 9.5813 64.0121 9.75119L64.7711 11.6488C64.8797 11.6054 65.0742 11.5619 65.3916 11.5619V9.5181ZM64.054 9.73547C63.6728 9.86888 63.2932 10.0818 63.0066 10.4258L64.5766 11.7342C64.5567 11.7582 64.577 11.7178 64.7292 11.6645L64.054 9.73547ZM63.0066 10.4258C62.7391 10.7468 62.5697 11.1464 62.5697 11.6H64.6135C64.6135 11.6314 64.6073 11.6658 64.5954 11.6968C64.584 11.7264 64.573 11.7386 64.5766 11.7342L63.0066 10.4258ZM62.5697 11.6C62.5697 12.1737 62.8296 12.659 63.2532 12.998L64.53 11.402C64.5287 11.401 64.5555 11.4228 64.5806 11.473C64.6067 11.5252 64.6135 11.5732 64.6135 11.6H62.5697ZM63.2873 13.0241C63.6028 13.2555 63.9678 13.4201 64.3541 13.5376L64.9491 11.5824C64.7221 11.5133 64.5804 11.4379 64.4959 11.3759L63.2873 13.0241ZM64.3541 13.5376C64.6988 13.6425 65.1557 13.7559 65.7125 13.8781L66.1507 11.8819C65.6141 11.7641 65.2178 11.6641 64.9491 11.5824L64.3541 13.5376ZM65.7132 13.8783C66.5411 14.0594 67.1825 14.2405 67.6528 14.4168L68.3704 12.5032C67.774 12.2795 67.0287 12.0739 66.15 11.8817L65.7132 13.8783ZM67.6605 14.4197C68.0564 14.5645 68.3948 14.7882 68.6861 15.0989L70.1771 13.7011C69.6684 13.1584 69.0602 12.7555 68.3627 12.5003L67.6605 14.4197ZM68.6973 15.1107C68.8692 15.2883 69.0097 15.5751 69.0097 16.1H71.0535C71.0535 15.1849 70.794 14.3383 70.1659 13.6894L68.6973 15.1107ZM69.0097 16.1C69.0097 16.4607 68.9092 16.7847 68.6922 17.0971L70.371 18.2629C70.8207 17.6153 71.0535 16.8859 71.0535 16.1H69.0097ZM68.7001 17.086C68.4987 17.3679 68.1633 17.6456 67.62 17.8846L68.4432 19.7554C69.2332 19.4077 69.8978 18.9254 70.3632 18.274L68.7001 17.086ZM67.6291 17.8807C67.1328 18.0934 66.4965 18.2181 65.6916 18.2181V20.2619C66.7 20.2619 67.6238 20.1066 68.4342 19.7593L67.6291 17.8807ZM72.5422 18.56L72.0273 19.4428L72.0384 19.4491L72.5422 18.56ZM70.6422 16.66L69.7558 17.1686L69.7595 17.1749L70.6422 16.66ZM70.6422 11.26L69.7559 10.7514L70.6422 11.26ZM72.5422 9.36L73.0461 10.2491L73.0571 10.2427L72.5422 9.36ZM77.9222 9.36L77.4073 10.2428L77.4184 10.2491L77.9222 9.36ZM79.8022 11.26L78.9096 11.7575L78.9132 11.7638L79.8022 11.26ZM80.4822 14.5V15.5219H81.5041V14.5H80.4822ZM72.1822 14.5V13.4781H71.021L71.1686 14.6299L72.1822 14.5ZM72.7022 15.92L71.8479 16.4807L71.8539 16.4899L71.8601 16.4989L72.7022 15.92ZM73.8022 16.94L73.2923 17.8256L73.3025 17.8315L73.3129 17.8371L73.8022 16.94ZM76.9822 16.88L77.4971 17.7627L77.5062 17.7574L77.5151 17.752L76.9822 16.88ZM78.0422 15.8V14.7781H77.428L77.1398 15.3206L78.0422 15.8ZM80.3222 15.8L81.2876 16.1352L81.7588 14.7781H80.3222V15.8ZM78.5222 18.24L77.8991 17.43L77.8931 17.4347L78.5222 18.24ZM78.1422 12.96V13.9819H79.3362L79.1519 12.8022L78.1422 12.96ZM77.6422 11.78L76.8065 12.3681L76.8137 12.3783L76.8211 12.3883L77.6422 11.78ZM76.6222 10.92L76.1535 11.8282L76.1652 11.834L76.6222 10.92ZM73.8222 10.92L73.3652 10.0059L73.3535 10.0119L73.8222 10.92ZM72.8022 11.78L71.9811 11.1717L72.8022 11.78ZM72.2422 12.96L71.2508 12.7122L70.9334 13.9819H72.2422V12.96ZM75.2222 18.2181C74.3988 18.2181 73.6812 18.0309 73.046 17.6709L72.0384 19.4491C73.0032 19.9958 74.0723 20.2619 75.2222 20.2619V18.2181ZM73.0571 17.6773C72.4094 17.2995 71.9028 16.7928 71.5249 16.1451L69.7595 17.1749C70.315 18.1272 71.0751 18.8872 72.0273 19.4427L73.0571 17.6773ZM71.5286 16.1514C71.1554 15.5011 70.9641 14.7779 70.9641 13.96H68.9203C68.9203 15.1154 69.1957 16.1923 69.7559 17.1686L71.5286 16.1514ZM70.9641 13.96C70.9641 13.1421 71.1554 12.4189 71.5286 11.7686L69.7559 10.7514C69.1957 11.7277 68.9203 12.8046 68.9203 13.96H70.9641ZM71.5286 11.7686C71.906 11.1108 72.4086 10.6103 73.046 10.2491L72.0384 8.47093C71.0758 9.01639 70.3118 9.78258 69.7559 10.7514L71.5286 11.7686ZM73.0571 10.2427C73.6906 9.87318 74.4042 9.6819 75.2222 9.6819V7.6381C74.0669 7.6381 72.9939 7.91349 72.0273 8.47731L73.0571 10.2427ZM75.2222 9.6819C76.0562 9.6819 76.776 9.87442 77.4073 10.2427L78.4371 8.47731C77.4685 7.91224 76.3883 7.6381 75.2222 7.6381V9.6819ZM77.4184 10.2491C78.0532 10.6088 78.5463 11.1057 78.9096 11.7575L80.6948 10.7625C80.1515 9.78763 79.3913 9.01788 78.426 8.47093L77.4184 10.2491ZM78.9132 11.7638C79.2755 12.4033 79.4603 13.1085 79.4603 13.9H81.5041C81.5041 12.7715 81.2356 11.7167 80.6913 10.7562L78.9132 11.7638ZM79.4603 13.9V14.5H81.5041V13.9H79.4603ZM80.4822 13.4781H72.1822V15.5219H80.4822V13.4781ZM71.1686 14.6299C71.2545 15.2994 71.4804 15.9208 71.8479 16.4807L73.5566 15.3593C73.364 15.0659 73.2433 14.7406 73.1958 14.3701L71.1686 14.6299ZM71.8601 16.4989C72.2382 17.0488 72.7174 17.4946 73.2923 17.8256L74.3121 16.0544C74.007 15.8787 73.753 15.6446 73.5443 15.3411L71.8601 16.4989ZM73.3129 17.8371C73.9047 18.1599 74.5465 18.3219 75.2222 18.3219V16.2781C74.8846 16.2781 74.5798 16.2001 74.2916 16.0429L73.3129 17.8371ZM75.2222 18.3219C76.0521 18.3219 76.8265 18.1539 77.4971 17.7627L76.4673 15.9973C76.1779 16.1661 75.779 16.2781 75.2222 16.2781V18.3219ZM77.5151 17.752C78.1252 17.3791 78.6189 16.8926 78.9447 16.2794L77.1398 15.3206C77.0122 15.5608 76.7992 15.7942 76.4494 16.008L77.5151 17.752ZM78.0422 16.8219H80.3222V14.7781H78.0422V16.8219ZM79.3569 15.4648C79.0939 16.2221 78.6204 16.8752 77.8992 17.43L79.1453 19.05C80.1574 18.2715 80.8839 17.2979 81.2876 16.1352L79.3569 15.4648ZM77.8931 17.4347C77.2596 17.9297 76.3977 18.2181 75.2222 18.2181V20.2619C76.7401 20.2619 78.0782 19.8837 79.1514 19.0453L77.8931 17.4347ZM79.1519 12.8022C79.0587 12.2062 78.8246 11.6593 78.4634 11.1717L76.8211 12.3883C76.9932 12.6207 77.0924 12.8605 77.1326 13.1178L79.1519 12.8022ZM78.4779 11.1919C78.1193 10.6822 77.6442 10.2885 77.0792 10.006L76.1652 11.834C76.4536 11.9782 76.6585 12.1578 76.8065 12.3681L78.4779 11.1919ZM77.0909 10.0119C76.5163 9.71534 75.8858 9.5781 75.2222 9.5781V11.6219C75.5986 11.6219 75.9015 11.698 76.1535 11.8281L77.0909 10.0119ZM75.2222 9.5781C74.567 9.5781 73.9426 9.71732 73.3652 10.006L74.2792 11.834C74.5552 11.696 74.8641 11.6219 75.2222 11.6219V9.5781ZM73.3535 10.0119C72.8068 10.2941 72.3444 10.6813 71.9811 11.1717L73.6234 12.3883C73.7934 12.1587 74.011 11.9726 74.2909 11.8281L73.3535 10.0119ZM71.9811 11.1717C71.6361 11.6375 71.3907 12.1529 71.2508 12.7122L73.2336 13.2078C73.3071 12.9138 73.435 12.6425 73.6234 12.3883L71.9811 11.1717ZM72.2422 13.9819H78.1422V11.9381H72.2422V13.9819Z" fill="#0F172A" mask="url(#path-2-outside-1_116_6268)"/>
</svg>
